Coordinates
version=1
nRows=6
nColumns=63
inDegrees=yes

Units are S.I. units (second, meters, Newtons, ...)
If the header above contains a line with 'inDegrees', this indicates whether rotational values are in degrees (yes) or radians (no).

endheader
time	pelvis_tilt	pelvis_list	pelvis_rotation	pelvis_tx	pelvis_ty	pelvis_tz	hip_flexion_r	hip_adduction_r	hip_rotation_r	knee_angle_r	knee_angle_r_beta	ankle_angle_r	subtalar_angle_r	mtp_angle_r	hip_flexion_l	hip_adduction_l	hip_rotation_l	knee_angle_l	knee_angle_l_beta	ankle_angle_l	subtalar_angle_l	mtp_angle_l	L5_S1_Flex_Ext	L5_S1_Lat_Bending	L5_S1_axial_rotation	L4_L5_Flex_Ext	L4_L5_Lat_Bending	L4_L5_axial_rotation	L3_L4_Flex_Ext	L3_L4_Lat_Bending	L3_L4_axial_rotation	L2_L3_Flex_Ext	L2_L3_Lat_Bending	L2_L3_axial_rotation	L1_L2_Flex_Ext	L1_L2_Lat_Bending	L1_L2_axial_rotation	L1_T12_Flex_Ext	L1_T12_Lat_Bending	L1_T12_axial_rotation	Abs_r3	Abs_r2	Abs_r1	Abs_t1	Abs_t2	neck_flexion	neck_bending	neck_rotation	arm_flex_r	arm_add_r	arm_rot_r	elbow_flex_r	pro_sup_r	wrist_flex_r	wrist_dev_r	arm_flex_l	arm_add_l	arm_rot_l	elbow_flex_l	pro_sup_l	wrist_flex_l	wrist_dev_l
0.000000	-2.776584	-2.976360	93.950147	-0.038324	0.909713	0.607229	4.004443	-3.604768	-12.485755	8.606992	0.150220	29.709624	8.481527	0.000000	4.881165	3.903364	13.073122	3.878181	0.067687	25.279563	-8.215926	0.000000	-0.047860	-0.021900	0.259841	-0.088880	-0.029127	0.276081	-0.078629	-0.053248	0.276081	-0.054699	-0.053248	0.227361	-0.044443	-0.044659	0.211121	-0.027347	-0.033923	0.194881	-0.341858	-0.247738	1.445159	0.000000	0.000000	26.968038	1.063685	-3.415219	-0.261886	-13.551695	26.502412	29.194670	80.410282	-10.343789	0.000294	12.720016	-7.099667	151.626645	1.113372	5.327333	-19.527966	-12.268035
0.020000	-3.115844	-2.832933	94.270841	-0.038061	0.909463	0.607425	3.716010	-3.999163	-13.752760	8.822197	0.153976	30.240311	9.724079	0.000000	4.814739	4.212546	11.713866	4.205116	0.073393	25.657485	-6.051488	0.000000	-0.064991	-0.072971	0.334314	-0.120695	-0.097051	0.355209	-0.106774	-0.177421	0.355209	-0.074278	-0.177421	0.292525	-0.060351	-0.148801	0.271630	-0.037136	-0.113031	0.250736	-0.464224	-0.825457	1.859356	0.000000	0.000000	27.057168	0.591783	-4.109915	-0.329257	-13.497981	27.171104	28.954587	79.294856	-10.514020	-0.338293	13.031687	-7.219497	152.796717	1.230680	5.557574	-20.111613	-12.323073
0.040000	-3.382718	-2.703079	94.613522	-0.037988	0.909330	0.607411	3.430687	-4.310805	-14.850745	8.952694	0.156254	30.649749	10.738896	0.000000	4.730550	4.457652	10.685049	4.450155	0.077670	25.949217	-4.321449	0.000000	-0.077513	-0.113716	0.372111	-0.143950	-0.151242	0.395368	-0.127346	-0.276488	0.395368	-0.088590	-0.276488	0.325597	-0.071979	-0.231889	0.302341	-0.044291	-0.176145	0.279084	-0.553668	-1.286373	2.069572	0.000000	0.000000	27.119567	0.247876	-4.645378	-0.343081	-13.462493	27.949562	28.699315	78.194999	-10.648971	-0.658809	13.232301	-7.322802	153.750713	1.316648	5.743734	-20.568260	-12.330911
0.060000	-3.582953	-2.585529	94.973559	-0.038084	0.909300	0.607211	3.149614	-4.546138	-15.791307	9.007005	0.157202	30.950019	11.545018	0.000000	4.630967	4.643619	9.954960	4.622275	0.080674	26.162683	-2.987479	0.000000	-0.085911	-0.144950	0.377247	-0.159546	-0.192783	0.400825	-0.141144	-0.352431	0.400825	-0.098188	-0.352431	0.330091	-0.079777	-0.295581	0.306513	-0.049090	-0.224527	0.282935	-0.613656	-1.639700	2.098133	0.000000	0.000000	27.157078	0.020857	-5.033779	-0.309279	-13.444000	28.820672	28.432618	77.117076	-10.752097	-0.960760	13.333745	-7.410360	154.504447	1.374675	5.890426	-20.912342	-12.298781
0.080000	-3.722293	-2.479017	95.346322	-0.038330	0.909363	0.606852	2.873932	-4.711610	-16.586042	8.993651	0.156969	31.153202	12.161482	0.000000	4.518354	4.775384	9.491885	4.730454	0.082562	26.305813	-2.011245	0.000000	-0.090670	-0.167488	0.353734	-0.168384	-0.222759	0.375842	-0.148963	-0.407229	0.375842	-0.103627	-0.407229	0.309517	-0.084197	-0.341541	0.287409	-0.051809	-0.259438	0.265301	-0.647650	-1.894654	1.967363	0.000000	0.000000	27.171547	-0.100380	-5.287288	-0.233771	-13.441275	29.767321	28.158260	76.067449	-10.826857	-1.243651	13.347903	-7.482952	155.073733	1.408161	6.002259	-21.158294	-12.233916
0.100000	-3.806483	-2.382274	95.727181	-0.038704	0.909507	0.606359	2.604781	-4.813664	-17.246547	8.921150	0.155703	31.271378	12.607329	0.000000	4.395081	4.857886	9.264111	4.783670	0.083491	26.386532	-1.354416	0.000000	-0.092276	-0.182144	0.305588	-0.171365	-0.242251	0.324687	-0.151600	-0.442865	0.324687	-0.105462	-0.442865	0.267389	-0.085687	-0.371428	0.248290	-0.052726	-0.282141	0.229191	-0.659116	-2.060448	1.699588	0.000000	0.000000	27.164821	-0.126943	-5.418076	-0.122477	-13.453088	30.772396	27.880006	75.052483	-10.876707	-1.506988	13.286662	-7.541359	155.474383	1.420503	6.083844	-21.320551	-12.143549
